<?xml version="1.0" standalone="no"?>
<!DOCTYPE svg PUBLIC "-//W3C//DTD SVG 20010904//EN"
 "http://www.w3.org/TR/2001/REC-SVG-20010904/DTD/svg10.dtd">
<svg version="1.0" xmlns="http://www.w3.org/2000/svg"
 width="260.000000pt" height="260.000000pt" viewBox="0 0 260.000000 260.000000"
 preserveAspectRatio="xMidYMid meet">
<metadata>
Created by potrace 1.14, written by Peter Selinger 2001-2017
</metadata>
<g transform="translate(0.000000,260.000000) scale(0.100000,-0.100000)"
fill="#000000" stroke="none">
<path d="M1245 2558 c-62 -16 -85 -26 -85 -41 0 -8 -11 -19 -25 -25 -14 -6
-25 -16 -25 -21 0 -6 -11 -22 -24 -36 -14 -15 -27 -44 -30 -69 -4 -25 -14 -50
-21 -56 -20 -17 -20 -108 0 -130 8 -9 19 -38 24 -64 5 -30 17 -53 30 -62 11
-8 21 -22 21 -31 0 -9 10 -26 23 -39 12 -13 33 -37 47 -54 14 -17 35 -41 48
-54 24 -26 30 -84 10 -104 -18 -18 -24 -15 -38 19 -13 30 -14 30 -64 24 -40
-6 -59 -15 -88 -44 -21 -20 -38 -41 -38 -47 0 -7 -11 -19 -25 -28 -14 -9 -25
-25 -25 -36 0 -11 -9 -29 -21 -41 -13 -13 -24 -41 -28 -75 -4 -29 -16 -63 -26
-74 -14 -15 -19 -44 -24 -124 -5 -71 -12 -112 -24 -129 -9 -14 -20 -52 -23
-84 -4 -34 -14 -66 -24 -78 -10 -11 -22 -37 -25 -58 -4 -21 -15 -42 -26 -48
-11 -5 -19 -15 -19 -20 0 -6 -13 -28 -30 -49 l-29 -37 -220 5 -220 5 -28 -30
c-15 -17 -36 -33 -45 -36 -20 -7 -33 -96 -23 -163 5 -34 12 -48 26 -51 11 -3
22 -16 25 -30 4 -13 17 -29 30 -33 13 -5 24 -16 24 -25 0 -8 17 -23 38 -34 21
-11 44 -27 51 -35 8 -9 24 -16 37 -16 12 0 29 -9 37 -20 15 -22 65 -40 109
-40 16 0 33 -9 42 -22 15 -21 30 -23 211 -37 167 -12 224 -12 384 -1 155 11
219 11 360 0 153 -12 257 -10 454 5 15 2 47 3 71 4 31 1 53 8 73 25 16 13 49
26 75 30 26 4 51 13 55 20 5 7 28 20 53 30 25 10 54 26 65 36 11 9 30 23 42
29 12 6 25 20 28 31 3 11 13 20 20 20 8 0 19 10 26 22 6 13 21 31 33 40 17 14
21 30 24 96 4 83 -7 122 -34 122 -8 0 -19 11 -26 25 -15 34 -42 37 -266 34
-195 -4 -197 -3 -229 21 -18 13 -33 29 -33 36 0 7 -11 26 -25 42 -14 17 -25
38 -25 49 0 11 -11 34 -25 53 -17 23 -25 47 -25 75 0 22 -9 59 -21 80 -14 28
-23 70 -28 142 -5 73 -12 108 -24 121 -9 10 -20 41 -23 68 -4 27 -16 65 -28
84 -12 19 -27 44 -34 55 -7 11 -20 32 -30 48 -9 15 -25 30 -35 33 -10 3 -22
17 -27 30 -5 13 -17 24 -27 25 -94 5 -97 5 -111 -23 -16 -35 -30 -35 -42 -2
-19 50 -14 61 71 149 10 12 19 26 19 32 0 7 9 17 20 23 11 6 23 22 26 36 3 13
14 29 24 34 10 5 20 27 24 50 3 22 15 57 26 78 25 46 25 68 0 114 -11 21 -23
56 -26 78 -4 23 -14 45 -24 50 -10 5 -21 21 -24 35 -4 14 -13 25 -20 25 -8 0
-23 11 -33 25 -12 17 -37 30 -76 40 -64 17 -102 17 -162 3z m173 -157 c82 -88
82 -88 82 -157 0 -55 -4 -68 -23 -87 -13 -12 -27 -30 -30 -41 -10 -25 -99
-133 -117 -141 -13 -5 -33 13 -114 105 -7 8 -17 25 -20 38 -4 12 -16 27 -27
32 -16 9 -19 22 -19 91 l0 80 58 59 c57 59 57 60 115 60 55 0 61 -2 95 -39z
m-221 -717 c3 -8 -3 -25 -15 -37 -11 -12 -23 -38 -27 -57 -4 -19 -16 -45 -25
-57 -10 -13 -21 -44 -25 -70 -4 -27 -15 -62 -26 -79 -10 -17 -19 -49 -19 -70
-1 -22 -8 -68 -17 -104 -24 -97 -28 -233 -9 -281 9 -22 18 -77 21 -122 4 -62
10 -89 26 -110 43 -58 -5 -107 -52 -53 -13 14 -31 26 -41 26 -10 0 -32 14 -50
30 -17 16 -38 30 -46 30 -8 0 -30 9 -48 21 -29 18 -34 26 -34 59 0 29 5 42 19
50 11 5 22 23 26 39 3 16 14 39 24 50 10 11 21 44 24 71 3 28 15 62 27 77 14
19 20 40 20 79 0 30 11 87 25 130 14 42 25 95 25 118 0 24 8 53 20 71 11 17
25 47 30 67 7 23 30 57 62 88 53 52 74 61 85 34z m342 -41 c28 -32 51 -65 51
-74 0 -9 11 -36 23 -60 13 -24 27 -73 31 -108 4 -36 14 -78 22 -94 9 -16 19
-68 24 -115 7 -63 14 -90 26 -99 12 -9 20 -34 25 -75 4 -38 13 -64 22 -70 9
-4 18 -21 22 -37 3 -16 17 -39 31 -51 45 -43 23 -95 -54 -127 -21 -8 -46 -23
-57 -33 -11 -10 -31 -21 -45 -25 -14 -4 -35 -19 -48 -32 -27 -30 -66 -28 -70
4 -2 12 6 30 18 41 17 15 22 38 29 119 5 55 15 111 22 124 16 30 18 197 2 224
-6 11 -16 63 -22 115 -7 52 -19 105 -27 117 -8 12 -19 46 -25 75 -6 29 -18 61
-26 70 -8 9 -19 35 -24 57 -5 23 -18 50 -29 61 -11 11 -17 26 -14 35 11 29 43
15 93 -42z m-193 -20 c12 -57 17 -68 35 -81 13 -9 19 -25 19 -52 0 -27 7 -45
21 -58 14 -14 22 -37 26 -78 3 -34 15 -74 27 -94 19 -32 21 -49 21 -220 0
-173 -1 -188 -22 -225 -14 -23 -23 -57 -23 -80 0 -33 -7 -49 -36 -81 -20 -21
-43 -49 -51 -61 -17 -26 -61 -31 -69 -8 -3 8 -14 17 -25 20 -10 4 -22 17 -25
31 -4 13 -15 29 -25 34 -12 7 -20 26 -24 58 -3 26 -15 65 -26 88 -17 36 -19
64 -19 218 0 159 2 182 21 223 12 26 24 73 27 105 3 42 10 62 22 68 11 6 19
26 23 55 3 29 13 54 26 66 11 11 21 30 21 44 0 36 10 55 31 55 12 0 21 -9 25
-27z m-853 -905 c10 -5 20 -22 24 -38 7 -39 23 -51 72 -53 33 -1 46 4 67 26
31 33 36 33 70 2 15 -14 35 -25 46 -25 24 0 70 -24 87 -44 8 -9 21 -16 30 -16
9 0 32 -13 51 -30 19 -16 42 -29 51 -30 9 0 24 -11 33 -25 9 -14 24 -25 34
-25 42 0 58 -56 20 -65 -13 -3 -99 -4 -193 -2 -157 2 -173 4 -207 25 -22 13
-63 26 -102 31 -50 5 -70 13 -81 28 -8 11 -35 26 -60 32 -25 6 -48 18 -51 26
-3 8 -21 19 -40 25 -19 6 -34 16 -34 21 0 5 -13 21 -30 36 -16 14 -30 34 -30
43 0 24 51 68 85 73 40 6 135 -3 158 -15z m1851 6 c6 -3 21 -19 33 -36 26 -38
21 -52 -37 -93 -24 -16 -53 -40 -66 -52 -13 -12 -24 -19 -24 -16 0 3 -6 1 -12
-5 -7 -5 -27 -13 -45 -16 -17 -4 -39 -18 -47 -32 -13 -19 -25 -24 -59 -24 -49
0 -108 -15 -117 -30 -19 -31 -398 -42 -422 -13 -16 20 1 45 36 54 16 5 35 17
43 28 8 12 21 21 29 21 8 0 23 9 35 21 11 11 40 29 65 39 24 11 44 23 44 28 0
5 24 17 53 26 29 9 61 25 70 36 21 25 43 25 56 1 15 -28 66 -45 102 -35 25 7
35 18 48 54 15 41 20 46 56 51 38 7 136 2 159 -7z"/>
</g>
</svg>
